<svg width="91" height="101" viewBox="0 0 91 101" fill="none" xmlns="http://www.w3.org/2000/svg">
<path d="M11 10C11 7.23858 13.2386 5 16 5H25C27.7614 5 30 7.23858 30 10C30 11.6569 28.6569 13 27 13H14C12.3431 13 11 11.6569 11 10Z" fill="#FF6600"/>
<path d="M39.4782 3.31068C40.1911 1.32467 42.0741 0 44.1842 0H61.3222C63.2038 0 64.9261 1.05634 65.779 2.73351L67.3046 5.73351C68.9963 9.05989 66.5797 13 62.8479 13H43.1073C39.6462 13 37.2319 9.56824 38.4013 6.31068L39.4782 3.31068Z" fill="#006633"/>
<path d="M28.7656 72C32.5605 77.44 38.8641 81 46 81C53.1359 81 59.4395 77.44 63.2344 72H88C89.6569 72 91 73.3431 91 75V86C91 94.2843 84.2843 101 76 101H15C6.71573 101 1.44967e-07 94.2843 0 86V75C0 73.3431 1.34315 72 3 72H28.7656Z" fill="#660066"/>
<path d="M76 16C84.2843 16 91 22.7157 91 31V64C91 65.6569 89.6569 67 88 67H65.8037C66.5777 64.8104 67 62.4546 67 60C67 48.402 57.598 39 46 39C34.402 39 25 48.402 25 60C25 62.4546 25.4223 64.8104 26.1963 67H3C1.34315 67 6.03999e-09 65.6569 0 64V31C0 22.7157 6.71573 16 15 16H76ZM73 27C68.5817 27 65 30.5817 65 35C65 39.4183 68.5817 43 73 43C77.4183 43 81 39.4183 81 35C81 30.5817 77.4183 27 73 27Z" fill="#7BB63E"/>
<circle cx="46" cy="60" r="17" fill="#1BB0DE"/>
<circle cx="73" cy="35" r="6" fill="#FF6600"/>
</svg>
