<svg width="110" height="75" viewBox="0 0 110 75" fill="none" xmlns="http://www.w3.org/2000/svg">
<rect x="30" y="25" width="80" height="50" rx="5" fill="#FF6600"/>
<path d="M0 25H15C20.5228 25 25 29.4772 25 35V47.449H0V25Z" fill="#7BB63E"/>
<path d="M0 52.551H25V65C25 70.5229 20.5228 75 15 75H0V52.551Z" fill="#006633"/>
<path d="M3 6.00433C3 3.24291 5.23858 1.00433 8 1.00433H23V21.0043H8C5.23858 21.0043 3 18.7658 3 16.0043V6.00433Z" fill="#660066"/>
<rect x="28" y="1.00433" width="60" height="20" fill="#006633"/>
<path d="M108.047 10.9994L91.5941 20.6045L91.5024 1.55303L108.047 10.9994Z" fill="#7BB63E"/>
<path d="M51.0001 35C51.5001 40.5 44.2001 50.8 69.0001 42C100 31 91.0001 75.5 65.5001 61" stroke="#1BB0DE" stroke-width="5" stroke-linecap="round"/>
</svg>
