<svg width="113" height="100" viewBox="0 0 113 100" fill="none" xmlns="http://www.w3.org/2000/svg">
<path d="M68.0568 25.641V85.8974H44.9432V25.641H68.0568Z" fill="#660066"/>
<path d="M98.8882 0C98.9615 0.0246805 99.0348 0.0494564 99.108 0.0742721C99.1488 0.0880588 99.1896 0.101846 99.2317 0.11605C99.5016 0.211334 99.7578 0.341522 100.016 0.465176C100.047 0.480044 100.078 0.494913 100.111 0.510232C101.988 1.40943 103.711 2.54475 105.279 3.93106C105.334 3.97941 105.334 3.97941 105.39 4.02873C106.038 4.60337 106.667 5.20089 107.222 5.87039C107.266 5.92059 107.309 5.97079 107.354 6.02251C109.244 8.2233 110.583 10.8705 111.517 13.6277C111.537 13.6853 111.556 13.7428 111.576 13.8021C112.262 15.8428 113 18.3177 113 20.4939C111.72 20.4976 110.44 20.5004 109.16 20.5021C108.565 20.5029 107.971 20.504 107.377 20.5058C106.858 20.5074 106.34 20.5084 105.822 20.5087C105.547 20.5089 105.273 20.5094 104.999 20.5106C104.74 20.5116 104.482 20.512 104.223 20.5117C104.129 20.5118 104.034 20.5121 103.94 20.5127C102.561 20.5211 101.331 20.1256 100.316 19.1389C99.3895 18.1953 98.8798 16.9265 98.875 15.5888C98.8753 15.528 98.8756 15.4673 98.8759 15.4046C98.8758 15.3384 98.8757 15.2721 98.8756 15.2039C98.8754 15.0218 98.8758 14.8398 98.8763 14.6578C98.8768 14.4608 98.8766 14.2638 98.8765 14.0668C98.8765 13.7261 98.8768 13.3853 98.8774 13.0446C98.8782 12.552 98.8785 12.0594 98.8786 11.5668C98.8788 10.7675 98.8795 9.96816 98.8805 9.16882C98.8814 8.39266 98.8821 7.6165 98.8826 6.84033C98.8826 6.79243 98.8826 6.74453 98.8827 6.69518C98.8828 6.45487 98.8829 6.21456 98.883 5.97425C98.8841 3.98283 98.8859 1.99142 98.8882 0Z" fill="#7BB63E"/>
<path d="M14.1049 0C14.1084 2.05873 14.1111 4.11743 14.1128 6.17616C14.113 6.41947 14.1132 6.66277 14.1134 6.90608C14.1134 6.95452 14.1134 7.00296 14.1135 7.05286C14.1142 7.8361 14.1154 8.61933 14.1168 9.40257C14.1182 10.2069 14.1191 11.0111 14.1194 11.8154C14.1196 12.3113 14.1203 12.8072 14.1215 13.303C14.1224 13.6435 14.1226 13.984 14.1224 14.3245C14.1223 14.5207 14.1225 14.7169 14.1233 14.913C14.1305 16.6994 14.1305 16.6994 13.7864 17.4996C13.7709 17.5364 13.7554 17.5733 13.7394 17.6113C13.4928 18.1771 13.1344 18.6348 12.715 19.0798C12.6743 19.1268 12.6743 19.1268 12.6327 19.1749C11.9148 19.9725 10.7482 20.4438 9.69728 20.506C9.43944 20.5152 9.18176 20.5132 8.92382 20.511C8.82581 20.5109 8.7278 20.5109 8.62979 20.5111C8.3666 20.5111 8.10343 20.5099 7.84025 20.5084C7.56414 20.5071 7.28802 20.507 7.01191 20.5068C6.49034 20.5061 5.96877 20.5044 5.4472 20.5023C4.85287 20.5 4.25853 20.4988 3.66419 20.4978C2.4428 20.4956 1.22139 20.4919 0 20.4873C0.0238907 20.2976 0.0479973 20.1079 0.0721391 19.9183C0.0788241 19.8652 0.0855092 19.8121 0.0923968 19.7574C0.153132 19.2816 0.231841 18.811 0.321735 18.3402C0.329455 18.2993 0.337174 18.2585 0.345127 18.2165C0.785519 15.8968 1.48423 13.6111 2.47093 11.4687C2.49623 11.4135 2.52153 11.3582 2.54759 11.3013C3.16246 9.96406 3.86391 8.69086 4.73594 7.50679C4.77425 7.4546 4.77425 7.45461 4.81334 7.40136C5.34435 6.68071 5.91353 6.00215 6.51765 5.34371C6.59069 5.26348 6.66278 5.18248 6.73473 5.10126C7.52489 4.21341 8.42099 3.42161 9.36893 2.71079C9.39704 2.68971 9.42514 2.66864 9.45409 2.64692C10.1614 2.11972 10.8964 1.63916 11.6677 1.21371C11.805 1.13767 11.9418 1.06059 12.0785 0.983556C13.836 -4.89064e-06 13.8361 0 14.1049 0Z" fill="#006633"/>
<path d="M17.9773 0H95.0227V16.6667C95.0227 18.7908 93.298 20.5128 91.1705 20.5128H21.8296C19.702 20.5128 17.9773 18.7908 17.9773 16.6667V0Z" fill="#FF6600"/>
<path d="M41.0909 89.7436H71.9091V96.1538C71.9091 98.278 70.1844 100 68.0568 100H44.9432C42.8156 100 41.0909 98.278 41.0909 96.1538V89.7436Z" fill="#1BB0DE"/>
</svg>
