<svg width="1920" height="130" viewBox="0 0 1920 130" fill="none" xmlns="http://www.w3.org/2000/svg">
<rect width="1920" height="130" fill="#D9D9D9"/>
<rect x="1404" y="36" width="176" height="56" rx="10" fill="#883F3F"/>
<path d="M1810 37.5C1810 35.567 1811.57 34 1813.5 34H1886.5C1888.43 34 1890 35.567 1890 37.5C1890 39.433 1888.43 41 1886.5 41H1813.5C1811.57 41 1810 39.433 1810 37.5Z" fill="#883F3F"/>
<path d="M1810 56.5C1810 52.3579 1813.36 49 1817.5 49H1882.5C1886.64 49 1890 52.3579 1890 56.5C1890 60.6421 1886.64 64 1882.5 64H1817.5C1813.36 64 1810 60.6421 1810 56.5Z" fill="#883F3F"/>
<path d="M1810 82C1810 76.4772 1814.48 72 1820 72H1880C1885.52 72 1890 76.4772 1890 82V85C1890 90.5228 1885.52 95 1880 95H1820C1814.48 95 1810 90.5228 1810 85V82Z" fill="#883F3F"/>
<rect x="1612.5" y="38.5" width="171" height="51" rx="7.5" stroke="#883F3F" stroke-width="5"/>
</svg>
