<svg width="733" height="80" viewBox="0 0 733 80" fill="none" xmlns="http://www.w3.org/2000/svg">
<rect width="733" height="80" rx="40" fill="#C0C0C0"/>
<path d="M699 38C699 45.1797 693.18 51 686 51C678.82 51 673 45.1797 673 38C673 30.8203 678.82 25 686 25C693.18 25 699 30.8203 699 38Z" fill="#C0C0C0"/>
<path d="M696.079 46.2204L706.046 55.9253M699 38C699 45.1797 693.18 51 686 51C678.82 51 673 45.1797 673 38C673 30.8203 678.82 25 686 25C693.18 25 699 30.8203 699 38Z" stroke="black" stroke-width="3"/>
</svg>
