<svg width="80" height="61" viewBox="0 0 80 61" fill="none" xmlns="http://www.w3.org/2000/svg">
<path d="M0 3.5C0 1.567 1.567 0 3.5 0H76.5C78.433 0 80 1.567 80 3.5C80 5.433 78.433 7 76.5 7H3.5C1.567 7 0 5.433 0 3.5Z" fill="#883F3F"/>
<path d="M0 22.5C0 18.3579 3.35786 15 7.5 15H72.5C76.6421 15 80 18.3579 80 22.5C80 26.6421 76.6421 30 72.5 30H7.5C3.35786 30 0 26.6421 0 22.5Z" fill="#883F3F"/>
<path d="M0 48C0 42.4772 4.47715 38 10 38H70C75.5229 38 80 42.4772 80 48V51C80 56.5228 75.5229 61 70 61H10C4.47715 61 0 56.5228 0 51V48Z" fill="#883F3F"/>
</svg>
